<svg xmlns="http://www.w3.org/2000/svg" xmlns:xlink="http://www.w3.org/1999/xlink" width="551.021" height="1321.138" viewBox="0 0 551.021 1321.138">
  <defs>
    <linearGradient id="linear-gradient" x1="0.5" x2="0.5" y2="1" gradientUnits="objectBoundingBox">
      <stop offset="0" stop-color="#1d1d1d"/>
      <stop offset="1" stop-color="#33333e"/>
    </linearGradient>
  </defs>
  <path id="Path_45" data-name="Path 45" d="M551.021,0c-31.235,54.073-55.359,120.421-67.691,196.567C457.3,357.4,484.92,542.653,442.063,690.656c-19.033,65.738-50.228,116.557-82.984,160.038-70.692,93.856-151.845,160.925-216.606,268.387C97.776,1193.23,58.92,1288.639,1.49,1321.138L0,1026.149c72.692,0,130.242-110.882,196.483-166.231,40.627-33.96,81.574-68.252,117.6-116.835C350.1,694.519,381.283,630,395.466,551.859c18.583-102.415,6.281-215.275,16.873-321.5C421.01,143.4,444.9,65.22,477.459,0Z" fill="url(#linear-gradient)"/>
</svg>
