<svg xmlns="http://www.w3.org/2000/svg" xmlns:xlink="http://www.w3.org/1999/xlink" width="1198.046" height="1897.043" viewBox="0 0 1198.046 1897.043">
  <defs>
    <linearGradient id="linear-gradient" x1="0.5" x2="0.5" y2="1" gradientUnits="objectBoundingBox">
      <stop offset="0" stop-color="#1d1d1d"/>
      <stop offset="1" stop-color="#33333e"/>
    </linearGradient>
  </defs>
  <path id="Path_47" data-name="Path 47" d="M2000.2,1495.059v401.984c-337.136-164.345-451.585-395-478.3-437.829-27.445-44-44.387-105.539-62.75-163.495-53.879-170.076-127.541-324.383-222.917-412.508-98.6-91.1-207.664-118.831-307.731-204.276-27.064-23.127-53.649-49.562-76.053-85.925-22.4-36.344-40.547-83.485-47.278-137.17-10.072-80.25,6.341-164.53,30.405-233.854,24.064-69.343,55.649-128.722,80.9-196.585Q921.145,12.839,925.62,0h126.771c-6.541,14.66-13.542,28.543-20.774,41.558-36.306,65.331-79.633,117.63-111.538,190.392s-50.788,176.639-28.365,260.641c14.342,53.685,43.267,90.011,73.9,109.477s63.32,24.273,95.556,30.114c95.976,17.414,192.852,46.309,280.327,121.382,84.884,72.855,157.706,186.566,222.967,310.573,51.1,97.073,99.857,203.573,165.188,264.948,84.994,79.843,190.011,75.2,270.545,165.972" transform="translate(-802.153)" fill="url(#linear-gradient)"/>
</svg>
