<svg xmlns="http://www.w3.org/2000/svg" xmlns:xlink="http://www.w3.org/1999/xlink" width="702.458" height="708.551" viewBox="0 0 702.458 708.551">
  <defs>
    <linearGradient id="linear-gradient" x1="0.5" x2="0.5" y2="1" gradientUnits="objectBoundingBox">
      <stop offset="0" stop-color="#1d1d1d"/>
      <stop offset="1" stop-color="#33333e"/>
    </linearGradient>
  </defs>
  <path id="Path_46" data-name="Path 46" d="M2000.116,477.931V708.551c-28.425-36.936-59.13-67.846-91.445-91.545-138.553-101.6-294.929-70.581-439.883-134.785-51.308-22.72-103.247-60.137-137.893-133.694-34.656-73.539-46.378-190.892-14.912-269.182,13.322-33.165,31.005-58.787,50.748-79.344h122.25a24.974,24.974,0,0,1-2.56.85,170.7,170.7,0,0,0-27.615,9.816c-16.363,7.524-32.035,18.8-47.148,32.037-46.118,40.375-59.32,138.445-32.826,217.179,13.812,41.1,35.486,71.561,58.92,93.116,85.324,78.475,183.37,88.162,276.966,89.937,81.934,1.571,189.771-1.534,285.4,34.995" transform="translate(-1297.658)" fill="url(#linear-gradient)"/>
</svg>
