<svg xmlns="http://www.w3.org/2000/svg" xmlns:xlink="http://www.w3.org/1999/xlink" width="1040.175" height="533.583" viewBox="0 0 1040.175 533.583">
  <defs>
    <linearGradient id="linear-gradient" x1="0.5" x2="0.5" y2="1" gradientUnits="objectBoundingBox">
      <stop offset="0" stop-color="#1d1d1d"/>
      <stop offset="1" stop-color="#33333e"/>
    </linearGradient>
  </defs>
  <path id="Path_48" data-name="Path 48" d="M1277.615,1297.3H987.65q-3.794-13.143-7.355-26.874c-21.332-81.907-39.28-168.828-71.609-237.344C831.384,869.2,707.874,881.172,612.38,978.1c-28.993,29.448-56.434,65.535-77.9,112.078-26.94,58.422-39.549,131.635-43.825,207.129H237.44c44.949-110.2,90.827-220.407,147.7-309.677C530.105,760.084,739.518,696.039,914.135,841.539c65.182,54.289,124.023,132.854,176.327,222.394,51.669,88.457,103.766,158.553,167.286,216.071q9.86,8.943,19.866,17.3" transform="translate(-237.44 -763.72)" fill="url(#linear-gradient)"/>
</svg>
