<svg xmlns="http://www.w3.org/2000/svg" xmlns:xlink="http://www.w3.org/1999/xlink" width="143.35" height="140.467" viewBox="0 0 143.35 140.467">
  <defs>
    <clipPath id="clip-path">
      <rect id="Rectangle_817" data-name="Rectangle 817" width="108.656" height="94.006" transform="translate(0 0)" fill="#fff"/>
    </clipPath>
  </defs>
  <g id="Group_97" data-name="Group 97" transform="matrix(0.799, 0.602, -0.602, 0.799, 56.574, 0)">
    <g id="Group_73" data-name="Group 73" transform="translate(0)" clip-path="url(#clip-path)">
      <path id="Path_65" data-name="Path 65" d="M44.559,22.046c1.8-8.214,7.4-14.091,14.5-17.7A42.669,42.669,0,0,1,84.907.6a41.257,41.257,0,0,1,8.042,2.733,65.633,65.633,0,0,1,10.7,6.367.729.729,0,0,1-.772,1.236,70.328,70.328,0,0,0-9.124-4.2,40.668,40.668,0,0,0-9.5-2.346A38.8,38.8,0,0,0,60.977,8.078C55.106,11.129,50.372,15.932,48.8,22.7a30.326,30.326,0,0,1,5.211,1.512,21.626,21.626,0,0,1,8.741,6.219,18.146,18.146,0,0,1,4.046,8.552,6.859,6.859,0,0,1-2.856,6.937c-4.866,3.334-9.564,1.666-13.247-2.374-4.153-4.553-6.842-12.268-6.7-17.257-1.766-.193-3.543-.3-5.294-.4a31.325,31.325,0,0,0-20.478,6.452A36.542,36.542,0,0,0,5.632,50.126c-2.112,6.033-2,12.444-1.012,18.23A55.692,55.692,0,0,0,7.7,79.221a29.925,29.925,0,0,0,3.4,6.857.155.155,0,0,1-.221.218,23.055,23.055,0,0,1-5.285-6.021,38.827,38.827,0,0,1-4.483-11.2A38.249,38.249,0,0,1,1.646,48.8,40.75,40.75,0,0,1,15.672,28.952a35.57,35.57,0,0,1,23.259-7.338c1.863.1,3.751.222,5.628.432m3.709,4.914A25.953,25.953,0,0,1,52.413,28.2a17.363,17.363,0,0,1,7.029,5,14.784,14.784,0,0,1,2.84,5.246c.4,1.481.5,3.006-.793,3.9-2.821,1.939-5.478.628-7.619-1.713a23.484,23.484,0,0,1-5.6-13.677" transform="translate(0.001 7.665)" fill="#fff" fill-rule="evenodd"/>
      <path id="Path_66" data-name="Path 66" d="M18.289,18.643c-.877-1.084-1.769-2.162-2.646-3.255-1.029-1.285-2.061-2.568-3.037-3.9C10.111,8.1,7.864,4.619,5.551,1.163A.707.707,0,0,1,6.632.25c2.546,2.394,5.163,4.666,7.719,7.116,1.087,1.042,2.158,2.088,3.172,3.2,2.272,2.486,4.323,5.159,6.345,7.81a4.467,4.467,0,0,1,.709,1.46,2.747,2.747,0,0,1-.1,1.655,2.35,2.35,0,0,1-1.346,1.351,6.629,6.629,0,0,1-2.308.3c-3.736-.037-12.844-1.264-14.73-1.476l-3.67-.662a2.521,2.521,0,0,1-.8-.269,3.031,3.031,0,0,1-.973-.8c-.126-.218.187-.337.017-.3-.129.026.042-.212.069-.125.1.327.177-.242.295-.12.3.3.009-.335.332-.3.118.012-.063-.124.056-.14.17-.021-.158-.135.017-.229.107-.058-.17-.062-.051-.168.086-.08-.242.059-.125-.092s-.132.077-.132.077.049-.152-.147.207a.155.155,0,0,1-.211.228c-.86.559-.122.028-.51.082-.138.019.023-.113-.079-.131-.506-.091.245-.216.04-.51-.083-.119.157-.009.109-.151-.086-.248.248.157.328-.205.043-.188.122.2.343-.108.163-.228-.05-.1.435-.287.345-.13,1.068.082,1.4.033l3.615.131c1.5.1,7.65.655,11.845.812" transform="translate(83.998 0)" fill="#fff" fill-rule="evenodd"/>
    </g>
  </g>
</svg>
