<svg xmlns="http://www.w3.org/2000/svg" xmlns:xlink="http://www.w3.org/1999/xlink" width="95.821" height="68.676" viewBox="0 0 95.821 68.676">
  <defs>
    <clipPath id="clip-path">
      <rect id="Rectangle_816" data-name="Rectangle 816" width="41.462" height="86.879" transform="translate(0 0)" fill="#fff"/>
    </clipPath>
  </defs>
  <g id="Group_96" data-name="Group 96" transform="translate(95.821 29.714) rotate(110)">
    <g id="Group_71" data-name="Group 71" transform="translate(0 0)" clip-path="url(#clip-path)">
      <path id="Path_64" data-name="Path 64" d="M41.431,86.818a.183.183,0,0,1-.24.03,68.429,68.429,0,0,1-13.68-11.51,70.1,70.1,0,0,1-13.59-23.4,81.919,81.919,0,0,1-3.89-15.83,107.2,107.2,0,0,1-.95-19.23c-.42,1.38-.83,2.76-1.25,4.14-1.36,4.54-2.75,9.04-3.84,13.58-.09.17-.11.36-.24.49s-.259.28-.4.405a1.662,1.662,0,0,1-.5.266,3.532,3.532,0,0,0-.458.19,2.068,2.068,0,0,1-.445.237A1.027,1.027,0,0,1,.94,35.771c-.166-.19-.361-.351-.519-.548a3.834,3.834,0,0,1-.37-.775,1.669,1.669,0,0,1-.05-.59c.27-2.3.54-4.59.93-6.89.58-3.43,1.3-6.85,2.2-10.22.99-3.76,2.26-7.44,3.58-11.06.37-.99.35-3.06.84-3.87.71-1.16,1.64-2.01,2.71-1.78.57.12,1.27-.15,1.78.56.17.44.51.5.83,1.5a3.486,3.486,0,0,0,.47.68c1.27,1.98,3.44,6.33,5.72,11.17,1.77,3.76,3.71,7.75,5.17,11.2,1.5,3.54,2.53,6.45,3.01,7.65a.43.43,0,0,1-.19.58.442.442,0,0,1-.59-.19c-.66-1.1-2.32-3.71-4.22-7.06-2.87-5.08-6.33-11.77-9.11-16.45a10.25,10.25,0,0,1,.15,1.13c.05.7-.01,1.39-.02,2.09a133.456,133.456,0,0,0,1.73,23.33,95.729,95.729,0,0,0,6.32,22.3,79.2,79.2,0,0,0,10.58,17.74,80.893,80.893,0,0,0,9.5,10.32.161.161,0,0,1,.04.23M9.751,4.638c-.14-.08-.28.15-.34.2.04.13.1.39.2.36.24-.03.23.35.41.32a2.252,2.252,0,0,1,.57-.04,3.019,3.019,0,0,0-.84-.84m2.93-.37c-.36-.08-.49.25-.52.74.43-.28.94-.64.52-.74" transform="translate(0 0)" fill="#fff" fill-rule="evenodd"/>
    </g>
  </g>
</svg>
