<svg xmlns="http://www.w3.org/2000/svg" width="159.26" height="159.26" viewBox="0 0 159.26 159.26">
  <path id="Path_107" data-name="Path 107" d="M84.441,32.436v2.256A.963.963,0,0,1,83.4,34.6c-.586-.356-1.146-.756-1.7-1.157-1.632-1.172-3.242-2.377-4.891-3.525a11.106,11.106,0,0,0-4.517-1.863c-.218-.285-.438-.6-.686-.89a8.442,8.442,0,0,0-2.6-2.013c-.76-.391-1.528-.764-2.29-1.151A4.468,4.468,0,0,1,66,23.593a5.057,5.057,0,0,0-2.652-1.047,1.127,1.127,0,0,1-.527-.186,3.191,3.191,0,0,0-1.732-.444,4.329,4.329,0,0,1-.886-.1A5.666,5.666,0,0,0,54.425,23a1.4,1.4,0,0,1-.343.227A4.319,4.319,0,0,0,52.14,25.6a1.841,1.841,0,0,0,.177,1.665c.134.27.307.521.48.81l-.166.609a2.193,2.193,0,0,1-.218.14c-.148.072-.306.126-.451.2a1.941,1.941,0,0,0-.909,2.725A21.13,21.13,0,0,0,53.681,36.5a77.845,77.845,0,0,1,5.28,8.585c.331.634.579,1.311.909,1.946.736,1.419,1.5,2.822,2.25,4.235a13.564,13.564,0,0,1,1.357,3.449c.022.1.032.206.056.364a2.938,2.938,0,0,1-1.67-.405,6.046,6.046,0,0,0-.814-.4,10.607,10.607,0,0,1-1.925-1.109,11.481,11.481,0,0,0-2.1-1.124c-1.63-.738-3.275-1.446-4.92-2.151a13.947,13.947,0,0,0-3.511-.885c-.814-.12-1.614-.33-2.42-.5a7.87,7.87,0,0,0-4.616.462,21.787,21.787,0,0,0-2.876,1.441,5.43,5.43,0,0,0-1,1.1,2.113,2.113,0,0,0-1.09,2.161,5.1,5.1,0,0,0-.954,3.576,16.588,16.588,0,0,0,.586,2.392c.209.733.466,1.453.715,2.173.167.455.323.915.505,1.364a21.983,21.983,0,0,0,1.03,2.426,12.364,12.364,0,0,1,1.083,2.579c.243.847.51,1.687.758,2.533.051.175.065.36.119.674a7.325,7.325,0,0,1-.932-.224,16.81,16.81,0,0,1-3.73-1.932,8.593,8.593,0,0,0-2.116-1.1,21.828,21.828,0,0,0-3.368-1.1,6.345,6.345,0,0,0-3.877.413c-.578.258-1.15.529-1.728.786a5.365,5.365,0,0,0-2.431,2.048,9.29,9.29,0,0,0-1.548,4.97,14.094,14.094,0,0,0,.94,4.744c.174.517.26,1.064.4,1.594a14.6,14.6,0,0,0,.445,1.583c.316.819.717,1.606,1.031,2.425a8.836,8.836,0,0,1,.431,1.583c.126.694.185,1.4.291,2.244A14.719,14.719,0,0,1,21.864,88c-.179-.123-.364-.311-.557-.325a2.826,2.826,0,0,1-1.693-.958,3.317,3.317,0,0,0-1.964-.966,8.932,8.932,0,0,0-3.4-2.3,10.282,10.282,0,0,0-2.97-.662c-.989-.055-1.979-.11-2.969-.147a3.826,3.826,0,0,0-1.982.488,3.028,3.028,0,0,1-.758.315A5.66,5.66,0,0,0,1.7,86.43c-.462.844-.887,1.712-1.279,2.591a5.163,5.163,0,0,0-.2,3.556,3.723,3.723,0,0,1,.158,1.049,1.33,1.33,0,0,0,.632,1.361,1.784,1.784,0,0,0,.013,1.905.7.7,0,0,1,.064.153c.209.926.41,1.854.625,2.778a2.676,2.676,0,0,0,.291.934,2.277,2.277,0,0,1,.355,1.412,3.778,3.778,0,0,0,.454,2.148.974.974,0,0,1,.176.543,4.937,4.937,0,0,0,.658,2.445,2.449,2.449,0,0,0,.288,1.742,8.049,8.049,0,0,1,.387,1.5,24.885,24.885,0,0,0,2.242,6.267c.689,1.16,1.414,2.3,2.158,3.426a5.884,5.884,0,0,0,2.857,2.289,4.83,4.83,0,0,1,.932.522,3.775,3.775,0,0,0,3.395.434c.42-.13.83-.292,1.25-.422a1.489,1.489,0,0,0,1.075-1.044c.217-.766.453-1.531.6-2.312a3.671,3.671,0,0,1,1.835-2.692,1.838,1.838,0,0,0,.855-2.673c-.416-1.018-.936-1.994-1.426-2.981a7.8,7.8,0,0,1-.782-2.164,7.362,7.362,0,0,0-.591-1.532c-.168-.4-.357-.791-.534-1.178l.412-1.131a1.093,1.093,0,0,1,1.161.242c1.031.782,2.063,1.565,3.066,2.383a14.5,14.5,0,0,0,3.517,2.443,7.129,7.129,0,0,1,2.93,1.734,18.178,18.178,0,0,0,5.936,2.628,8.212,8.212,0,0,0,7.64-2.069,6.452,6.452,0,0,1,.543-.509,4.351,4.351,0,0,0,1.471-2.151c.261-.723.507-1.453.718-2.192a4.473,4.473,0,0,0-.009-2.448,7.188,7.188,0,0,1-.4-2.262,1.418,1.418,0,0,0-.174-.8,7.465,7.465,0,0,1-.763-2.42A30.8,30.8,0,0,0,42.441,94.8c-.311-.7-.555-1.421-.872-2.245a4.743,4.743,0,0,1,2.271.711A16.407,16.407,0,0,0,47.9,95.447a19.979,19.979,0,0,0,4.366,1.488,8.326,8.326,0,0,0,7.814-2.306,14.631,14.631,0,0,0,1.364-1.55,4.525,4.525,0,0,0,.978-2.752,8.536,8.536,0,0,1,.309-1.612,10.283,10.283,0,0,0-.247-4.5,38.163,38.163,0,0,0-2.907-8.412c-.154-.314-.182-.688-.314-1.016-.215-.531-.456-1.052-.707-1.567s-.565-1.007-.786-1.536a1.773,1.773,0,0,1,.282-1.8c.091.012.193-.006.243.037a6.051,6.051,0,0,0,2.031,1.079.946.946,0,0,1,.357.2,6.423,6.423,0,0,0,2.147,1.2,18.373,18.373,0,0,1,1.881,1.035,22.166,22.166,0,0,0,6.826,2.641,16.212,16.212,0,0,0,2.129.245,9.928,9.928,0,0,0,2.712.007,2.984,2.984,0,0,0,2.178-1.448c1.581-.149,2.51-1.278,3.419-2.363a8.124,8.124,0,0,0,1.771-4.972c.035-.716,0-1.435.023-2.152a5.14,5.14,0,0,0-.38-2.261,3.478,3.478,0,0,1-.13-.887,3.7,3.7,0,0,0-.188-1.128,21.36,21.36,0,0,1-1.131-3.532,13.024,13.024,0,0,0-1.456-3.407,6.168,6.168,0,0,1-.616-2.256c.4.179.7.3.986.438,1.212.6,2.425,1.189,3.628,1.8a6.936,6.936,0,0,1,1.045.661,6.807,6.807,0,0,0,2.93,1.266c.865.162,1.73.33,2.6.443a7.79,7.79,0,0,0,5.825-1.273,9.329,9.329,0,0,0,2.639-3.038,18.412,18.412,0,0,0,1.041-1.972,6.218,6.218,0,0,0,.415-1.751,18.2,18.2,0,0,1,.308-2.282,13.309,13.309,0,0,0-.043-5.171,7.867,7.867,0,0,1-.159-2.7,4.16,4.16,0,0,0-.351-2.423,4.173,4.173,0,0,1-.379-1.76,7.015,7.015,0,0,0-.564-2.818,18.99,18.99,0,0,1-1.131-3.873,4.619,4.619,0,0,0-1.642-2.968.966.966,0,0,1-.348-.888A6.616,6.616,0,0,0,95.4,19.681a20.669,20.669,0,0,1-1.051-1.871,23.192,23.192,0,0,0-1.826-3.042C91.1,12.7,89.737,10.6,88.321,8.525a13.61,13.61,0,0,0-1.28-1.507c-.391-.423-.853-.783-1.227-1.219a17.385,17.385,0,0,0-4.5-3.6c-.306-.18-.575-.422-.874-.616a8.831,8.831,0,0,0-.855-.491,5.245,5.245,0,0,0-.9-.379c-.365-.1-.748-.144-1.123-.212A7.244,7.244,0,0,1,76.286.25a3.379,3.379,0,0,0-2.725.077c-.626.286-1.259.561-1.867.883a1.856,1.856,0,0,0-.585.557c-.272.375-.483.795-.752,1.174a5,5,0,0,0-1.13,3.207,3.981,3.981,0,0,0,.8,2.22,6.091,6.091,0,0,0,1.348.977,5.871,5.871,0,0,1-.08.99,2.969,2.969,0,0,0,.177,1.62,1.963,1.963,0,0,0,1.337,1.259,3.618,3.618,0,0,1,1.413.962A27.711,27.711,0,0,1,76.3,16.189a17.8,17.8,0,0,1,1.724,2.616,21.56,21.56,0,0,0,1.907,3.18,11.837,11.837,0,0,1,1.256,2.321c.408.841.785,1.7,1.146,2.56.456,1.09.886,2.19,1.315,3.291a3.5,3.5,0,0,1,.178.717,2.7,2.7,0,0,0,.62,1.562" transform="translate(87.472) rotate(45)" fill="#e87a0a"/>
</svg>
